<svg xmlns="http://www.w3.org/2000/svg" viewBox="-20 -20 440 440" width="440" height="440">
<rect x="-20" y="-20" width="440" height="440" fill="#1a1d20"/>
<defs><filter id="glow" x="-50%" y="-50%" width="200%" height="200%"><feGaussianBlur stdDeviation="8"/></filter></defs>
<circle cx="200" cy="200" r="196" fill="#2b3036"/><circle cx="200" cy="200" r="186" fill="#1d2125" stroke="#3a4048" stroke-width="2"/>
<rect x="177.25009603505455" y="22" width="45.49980792989089" height="83" rx="22.749903964945446" transform="rotate(180 200 200)" fill="#14b8a6" fill-opacity="0.5" stroke="rgba(255,255,255,0.18)" stroke-width="1.5"/>
<text x="200.0" y="345.9" font-size="26.0" text-anchor="middle" font-family="system-ui, sans-serif" font-weight="700" fill="#fff" stroke="rgba(0,0,0,0.55)" stroke-width="3" paint-order="stroke">5</text>
<circle cx="200.0" cy="352.6" r="2.3" fill="#fff"/>
<rect x="177.25009603505455" y="22" width="45.49980792989089" height="80" rx="22.749903964945446" transform="rotate(212.72727272727272 200 200)" fill="#3b82f6" fill-opacity="0.5" stroke="rgba(255,255,255,0.18)" stroke-width="1.5"/>
<text x="125.4" y="325.5" font-size="26.0" text-anchor="middle" font-family="system-ui, sans-serif" font-weight="700" fill="#fff" stroke="rgba(0,0,0,0.55)" stroke-width="3" paint-order="stroke">6</text>
<circle cx="125.4" cy="332.2" r="2.3" fill="#fff"/>
<rect x="177.25009603505455" y="22" width="45.49980792989089" height="77" rx="22.749903964945446" transform="rotate(147.27272727272728 200 200)" fill="#a855f7" fill-opacity="0.5" stroke="rgba(255,255,255,0.18)" stroke-width="1.5"/>
<text x="275.4" y="326.7" font-size="26.0" text-anchor="middle" font-family="system-ui, sans-serif" font-weight="700" fill="#fff" stroke="rgba(0,0,0,0.55)" stroke-width="3" paint-order="stroke">7</text>
<circle cx="275.4" cy="333.5" r="2.3" fill="#fff"/>
<rect x="177.25009603505455" y="22" width="45.49980792989089" height="74" rx="22.749903964945446" transform="rotate(245.45454545454544 200 200)" fill="#ef4444" fill-opacity="0.5" stroke="rgba(255,255,255,0.18)" stroke-width="1.5"/>
<text x="71.7" y="267.9" font-size="26.0" text-anchor="middle" font-family="system-ui, sans-serif" font-weight="700" fill="#fff" stroke="rgba(0,0,0,0.55)" stroke-width="3" paint-order="stroke">1</text>
<rect x="177.25009603505455" y="22" width="45.49980792989089" height="71" rx="22.749903964945446" transform="rotate(114.54545454545455 200 200)" fill="#f97316" fill-opacity="0.5" stroke="rgba(255,255,255,0.18)" stroke-width="1.5"/>
<text x="329.6" y="268.6" font-size="26.0" text-anchor="middle" font-family="system-ui, sans-serif" font-weight="700" fill="#fff" stroke="rgba(0,0,0,0.55)" stroke-width="3" paint-order="stroke">2</text>
<rect x="177.25009603505455" y="22" width="45.49980792989089" height="68" rx="22.749903964945446" transform="rotate(278.1818181818182 200 200)" fill="#facc15" fill-opacity="0.5" stroke="rgba(255,255,255,0.18)" stroke-width="1.5"/>
<text x="57.5" y="188.9" font-size="26.0" text-anchor="middle" font-family="system-ui, sans-serif" font-weight="700" fill="#fff" stroke="rgba(0,0,0,0.55)" stroke-width="3" paint-order="stroke">3</text>
<rect x="177.25009603505455" y="22" width="45.49980792989089" height="65" rx="22.749903964945446" transform="rotate(81.81818181818181 200 200)" fill="#22c55e" fill-opacity="0.5" stroke="rgba(255,255,255,0.18)" stroke-width="1.5"/>
<text x="344.0" y="188.7" font-size="26.0" text-anchor="middle" font-family="system-ui, sans-serif" font-weight="700" fill="#fff" stroke="rgba(0,0,0,0.55)" stroke-width="3" paint-order="stroke">4</text>
<rect x="177.25009603505455" y="22" width="45.49980792989089" height="62" rx="22.749903964945446" transform="rotate(310.9090909090909 200 200)" fill="#14b8a6" filter="url(#glow)"/>
<rect x="177.25009603505455" y="22" width="45.49980792989089" height="62" rx="22.749903964945446" transform="rotate(310.9090909090909 200 200)" fill="#14b8a6" fill-opacity="1" stroke="#fff" stroke-width="3"/>
<text x="88.9" y="113.1" font-size="26.0" text-anchor="middle" font-family="system-ui, sans-serif" font-weight="700" fill="#fff" stroke="rgba(0,0,0,0.55)" stroke-width="3" paint-order="stroke">5</text>
<rect x="177.25009603505455" y="22" width="45.49980792989089" height="59" rx="22.749903964945446" transform="rotate(49.09090909090909 200 200)" fill="#3b82f6" fill-opacity="0.5" stroke="rgba(255,255,255,0.18)" stroke-width="1.5"/>
<text x="312.2" y="112.1" font-size="26.0" text-anchor="middle" font-family="system-ui, sans-serif" font-weight="700" fill="#fff" stroke="rgba(0,0,0,0.55)" stroke-width="3" paint-order="stroke">6</text>
<rect x="177.25009603505455" y="22" width="45.49980792989089" height="56" rx="22.749903964945446" transform="rotate(343.6363636363636 200 200)" fill="#a855f7" fill-opacity="0.5" stroke="rgba(255,255,255,0.18)" stroke-width="1.5"/>
<text x="157.7" y="65.4" font-size="26.0" text-anchor="middle" font-family="system-ui, sans-serif" font-weight="700" fill="#fff" stroke="rgba(0,0,0,0.55)" stroke-width="3" paint-order="stroke">7</text>
<rect x="177.25009603505455" y="22" width="45.49980792989089" height="53" rx="22.749903964945446" transform="rotate(16.363636363636374 200 200)" fill="#ef4444" fill-opacity="0.5" stroke="rgba(255,255,255,0.18)" stroke-width="1.5"/>
<text x="242.7" y="64.0" font-size="26.0" text-anchor="middle" font-family="system-ui, sans-serif" font-weight="700" fill="#fff" stroke="rgba(0,0,0,0.55)" stroke-width="3" paint-order="stroke">1</text>
<circle cx="242.7" cy="38.5" r="2.3" fill="#fff"/>
<circle cx="200" cy="200" r="52" fill="#121416" stroke="#3a4048" stroke-width="2"/>
<text x="200" y="217" font-size="48" text-anchor="middle" font-family="system-ui, sans-serif" font-weight="700" fill="#14b8a6">5</text>
</svg>
